<svg xmlns="http://www.w3.org/2000/svg" xmlns:svgjs="http://svgjs.com/svgjs" xmlns:xlink="http://www.w3.org/1999/xlink" width="288" height="288"><svg xmlns="http://www.w3.org/2000/svg" width="288" height="288" enable-background="new 0 0 48 48" viewBox="0 0 48 48"><g fill="#ebf1f1" class="color000 svgShape"><path d="M24 15c-.3 0-.5-.1-.7-.3l-6-6c-.4-.4-.4-1 0-1.4s1-.4 1.4 0l5.3 5.3 5.3-5.3c.4-.4 1-.4 1.4 0s.4 1 0 1.4l-6 6C24.5 14.9 24.3 15 24 15zM30 41c-.3 0-.5-.1-.7-.3L24 35.4l-5.3 5.3c-.4.4-1 .4-1.4 0s-.4-1 0-1.4l6-6c.4-.4 1-.4 1.4 0l6 6c.4.4.4 1 0 1.4C30.5 40.9 30.3 41 30 41z" class="color000 svgShape"/><path d="M24 43c-.6 0-1-.4-1-1V6c0-.6.4-1 1-1s1 .4 1 1v36C25 42.6 24.6 43 24 43zM8 31c-.3 0-.5-.1-.7-.3-.4-.4-.4-1 0-1.4l5.3-5.3-5.3-5.3c-.4-.4-.4-1 0-1.4s1-.4 1.4 0l6 6c.4.4.4 1 0 1.4l-6 6C8.5 30.9 8.3 31 8 31zM40 31c-.3 0-.5-.1-.7-.3l-6-6c-.4-.4-.4-1 0-1.4l6-6c.4-.4 1-.4 1.4 0s.4 1 0 1.4L35.4 24l5.3 5.3c.4.4.4 1 0 1.4C40.5 30.9 40.3 31 40 31z" class="color000 svgShape"/><path d="M42,25H6c-0.6,0-1-0.4-1-1s0.4-1,1-1h36c0.6,0,1,0.4,1,1S42.6,25,42,25z" class="color000 svgShape"/><path d="M36,37c-0.3,0-0.5-0.1-0.7-0.3l-24-24c-0.4-0.4-0.4-1,0-1.4s1-0.4,1.4,0l24,24c0.4,0.4,0.4,1,0,1.4    C36.5,36.9,36.3,37,36,37z" class="color000 svgShape"/><path d="M12 37c-.3 0-.5-.1-.7-.3-.4-.4-.4-1 0-1.4l24-24c.4-.4 1-.4 1.4 0s.4 1 0 1.4l-24 24C12.5 36.9 12.3 37 12 37zM9 13c-2.2 0-4-1.8-4-4s1.8-4 4-4 4 1.8 4 4S11.2 13 9 13zM9 7C7.9 7 7 7.9 7 9s.9 2 2 2 2-.9 2-2S10.1 7 9 7z" class="color000 svgShape"/><path d="M9 43c-2.2 0-4-1.8-4-4s1.8-4 4-4 4 1.8 4 4S11.2 43 9 43zM9 37c-1.1 0-2 .9-2 2s.9 2 2 2 2-.9 2-2S10.1 37 9 37zM39 43c-2.2 0-4-1.8-4-4s1.8-4 4-4 4 1.8 4 4S41.2 43 39 43zM39 37c-1.1 0-2 .9-2 2s.9 2 2 2 2-.9 2-2S40.1 37 39 37zM39 13c-2.2 0-4-1.8-4-4s1.8-4 4-4 4 1.8 4 4S41.2 13 39 13zM39 7c-1.1 0-2 .9-2 2s.9 2 2 2 2-.9 2-2S40.1 7 39 7z" class="color000 svgShape"/></g></svg></svg>